# xmcd
#
# Track frame offsets: 
#        150
#        19989
#        35298
#        47164
#        67454
#        77840
#        91332
#        108150
#        123344
#        138639
#        155027
#        170856
#        188898
#        205701
#        224460
#        248123
#        264488
#        281946
#        301906
#        320708
#        328836
#
# Disc length: 4725 seconds
#
# Revision: 0
# Processed by: cddbd v1.5.2PL0 Copyright (c) Steve Scherf et al.
# Submitted via: ExactAudioCopy v1.1
#
DISCID=49127315
DTITLE=Various Artist - De Ultimate Top 40 Collection - Last Farewell - CD 1
DYEAR=2019
DGENRE=Chanson
TTITLE0=Robbie Williams - Angels
TTITLE1=Bette Midler - The Rose
TTITLE2=Gerry And The Pacemakers - You'll Never Walk Alone
TTITLE3=Whitney Houston - I Will Always Love You
TTITLE4=Louis Armstrong - What A Wonderful World
TTITLE5=Vera Lynn - We'll Meet Again
TTITLE6=Lou Reed - Perfect Day
TTITLE7=Minnie Riperton - Lovin' You
TTITLE8=Simply Red - Ev'ry Time We Say Goodbye
TTITLE9=Mary McDowell - Only Time
TTITLE10=Willie Nelson - Always On My Mind
TTITLE11=Westlife - You Raise Me Up
TTITLE12=Gladys Knight and The Pips - Wind Beneath My Wings
TTITLE13=James Arthur - Impossible (Acoustic Version)
TTITLE14=Dolly Parton - You Are
TTITLE15=John Denver - Let It Be
TTITLE16=Joe Cocker and Jennifer Warnes - Up Where We Belong
TTITLE17=Paul Young - Everytime You Go Away
TTITLE18=Passenger - Let Her Go
TTITLE19=Simon and Garfunkel - Song For The Asking
TTITLE20=The Corrs - Everybody Hurts (Live MTV Unplugged Version)
EXTD=
EXTT0=
EXTT1=
EXTT2=
EXTT3=
EXTT4=
EXTT5=
EXTT6=
EXTT7=
EXTT8=
EXTT9=
EXTT10=
EXTT11=
EXTT12=
EXTT13=
EXTT14=
EXTT15=
EXTT16=
EXTT17=
EXTT18=
EXTT19=
EXTT20=
PLAYORDER=
